{"glyphs":{"0":{"ha":917,"x_min":0,"x_max":0,"o":"m 429 -14 b 65 522 182 -14 14 151 l 69 551 b 526 1028 115 885 310 1028 b 889 529 761 1028 932 865 l 883 488 b 429 -14 838 129 654 -14 m 440 111 b 750 497 593 111 717 213 l 754 531 b 517 904 788 803 676 904 b 201 547 368 904 239 804 l 199 519 b 440 111 158 231 272 111 "},"1":{"ha":517,"x_min":0,"x_max":0,"o":"m 368 0 l 236 0 l 365 922 b 86 639 324 747 232 639 l 69 639 l 89 775 l 97 775 b 381 1014 257 775 350 849 l 510 1014 "},"2":{"ha":772,"x_min":0,"x_max":0,"o":"m -8 124 b 657 694 483 435 635 535 b 436 913 676 825 593 913 b 196 742 292 913 213 840 b 354 560 175 618 247 560 b 496 610 413 560 461 581 l 510 594 b 321 528 469 556 401 528 b 74 789 147 528 43 622 b 446 1028 97 915 228 1028 b 793 704 689 1028 821 890 b 26 125 763 500 597 390 l 706 125 l 689 0 l -25 0 "},"3":{"ha":783,"x_min":0,"x_max":0,"o":"m 338 -15 b 7 236 97 -15 -19 90 b 318 429 28 343 139 421 l 319 408 b 124 290 193 399 139 360 b 350 108 107 193 181 108 b 624 299 524 108 607 192 b 374 508 642 433 533 508 l 215 508 l 219 533 l 357 533 b 654 711 497 533 636 576 b 426 911 671 822 597 911 b 194 771 279 911 207 849 b 340 636 179 688 228 636 l 339 615 b 83 819 168 617 60 683 b 442 1026 101 933 217 1026 b 786 746 692 1026 810 901 b 465 522 767 611 657 539 b 740 249 658 504 764 418 b 338 -15 718 86 568 -15 "},"4":{"ha":822,"x_min":0,"x_max":0,"o":"m 617 1014 l 756 1014 l 754 1004 l 143 281 l 529 281 l 569 572 l 697 572 l 656 281 l 789 281 l 786 257 l 653 257 l 617 0 l 490 0 l 525 257 l -7 257 l -4 278 "},"5":{"ha":799,"x_min":0,"x_max":0,"o":"m 322 -14 b 17 233 104 -14 -11 88 b 308 426 36 338 142 413 l 310 406 b 122 288 185 394 133 349 b 344 108 103 185 182 108 b 642 367 508 108 619 203 b 435 610 661 511 581 610 b 168 463 306 610 219 554 l 51 482 l 156 1014 l 833 1014 l 817 892 l 253 892 l 178 513 b 458 640 232 586 325 640 b 761 325 654 640 789 524 b 322 -14 732 126 565 -14 "},"6":{"ha":854,"x_min":0,"x_max":0,"o":"m 811 311 b 421 -14 786 128 636 -14 b 54 511 153 -14 13 186 b 576 1028 100 829 281 1028 b 864 796 815 1028 886 907 b 656 642 847 715 775 663 l 651 663 b 765 746 722 676 756 703 b 558 907 786 826 731 907 b 176 506 356 907 211 767 b 169 414 172 475 169 446 b 504 640 207 557 343 640 b 811 311 721 640 839 508 m 183 333 b 429 110 186 201 282 110 b 693 344 574 110 671 201 b 475 610 717 503 642 610 b 183 333 325 610 181 510 "},"7":{"ha":776,"x_min":0,"x_max":0,"o":"m 683 892 l 103 892 l 119 1014 l 835 1014 l 818 900 l 269 0 l 126 0 "},"8":{"ha":851,"x_min":0,"x_max":0,"o":"m 25 274 b 376 529 46 421 172 515 b 128 781 217 544 107 628 b 513 1028 149 938 297 1028 b 838 751 731 1028 858 907 b 532 528 818 610 694 542 b 807 261 726 514 828 408 b 390 -14 783 94 636 -14 b 25 274 135 -14 1 113 m 710 715 b 494 915 726 828 649 915 b 243 738 344 915 260 850 b 454 538 226 615 322 538 b 710 715 579 538 692 594 m 688 306 b 447 519 708 449 586 519 b 158 319 307 519 178 460 b 406 104 140 203 232 104 b 688 306 579 104 669 181 "},"9":{"ha":854,"x_min":0,"x_max":0,"o":"m 826 500 b 333 -14 785 181 626 -14 b 38 218 94 -14 14 100 b 257 379 53 293 129 360 l 261 361 b 138 269 183 346 149 314 b 344 107 117 179 186 107 b 706 513 560 107 671 260 b 713 599 710 542 713 569 b 383 388 669 460 539 388 b 67 719 164 388 39 522 b 463 1028 92 901 244 1028 b 826 500 713 1028 874 857 m 704 686 b 454 907 701 825 606 907 b 189 682 317 907 211 831 b 411 415 167 531 254 415 b 704 686 572 415 707 525 "}," ":{"ha":300,"x_min":0,"x_max":0,"o":""},"A":{"ha":969,"x_min":0,"x_max":0,"o":"m 515 1014 l 650 1014 l 904 0 l 767 0 l 699 283 l 253 283 l 99 0 l -44 0 m 265 308 l 692 308 l 597 699 l 561 851 l 479 699 "},"B":{"ha":943,"x_min":0,"x_max":0,"o":"m 165 1014 l 621 1014 b 931 746 869 1014 951 896 b 576 514 910 597 781 525 b 889 253 801 506 914 428 b 483 0 865 88 725 0 l 24 0 m 283 892 l 232 526 l 519 526 b 796 704 689 526 781 594 b 576 892 810 811 756 892 m 229 501 l 176 126 l 463 126 b 761 310 668 126 744 194 b 522 501 778 432 714 501 "},"C":{"ha":1024,"x_min":0,"x_max":0,"o":"m 731 511 b 910 664 850 538 897 589 b 626 903 931 789 856 903 b 196 547 383 903 224 739 b 575 113 163 310 285 113 b 1007 481 779 113 951 221 l 1026 478 b 533 -14 967 144 783 -14 b 65 563 188 -14 19 239 b 643 1028 100 817 326 1028 b 1007 718 914 1028 1033 890 b 735 493 990 607 892 515 "},"D":{"ha":999,"x_min":0,"x_max":0,"o":"m 507 1014 b 961 464 836 1014 1007 793 b 404 0 925 204 739 0 l 24 0 l 165 1014 m 283 890 l 175 128 l 406 128 b 829 481 667 128 801 283 b 494 890 863 718 753 890 "},"E":{"ha":840,"x_min":0,"x_max":0,"o":"m 165 1014 l 885 1014 l 867 890 l 283 890 l 232 526 l 710 526 l 706 500 l 228 500 l 175 128 l 763 128 l 746 0 l 24 0 "},"F":{"ha":806,"x_min":0,"x_max":0,"o":"m 165 1014 l 856 1014 l 839 890 l 283 890 l 231 515 l 717 515 l 713 489 l 226 489 l 158 0 l 24 0 "},"G":{"ha":1075,"x_min":0,"x_max":0,"o":"m 888 376 b 464 -14 838 158 715 -14 b 61 538 171 -14 17 231 b 660 1028 101 822 322 1028 b 1044 725 956 1028 1068 888 b 811 500 1029 621 950 529 l 1038 500 l 968 0 l 833 0 l 888 376 m 678 501 b 946 668 843 501 931 553 b 644 903 964 786 883 903 b 193 528 381 903 225 746 b 508 111 163 315 256 111 b 899 464 731 111 861 264 l 900 475 l 529 475 l 532 501 "},"H":{"ha":963,"x_min":0,"x_max":0,"o":"m 165 1014 l 300 1014 l 232 525 l 769 525 l 838 1014 l 972 1014 l 831 0 l 696 0 l 765 500 l 229 500 l 158 0 l 24 0 "},"I":{"ha":294,"x_min":0,"x_max":0,"o":"m 168 1014 l 303 1014 l 161 0 l 26 0 "},"J":{"ha":729,"x_min":0,"x_max":0,"o":"m 375 414 b 292 428 349 424 319 428 b 129 300 200 428 140 385 b 307 113 113 183 192 113 b 521 329 432 113 501 189 l 618 1014 l 753 1014 l 656 317 b 304 -14 628 115 510 -14 b 8 263 104 -14 -15 96 b 263 451 24 374 122 451 b 382 433 314 451 349 444 "},"K":{"ha":900,"x_min":0,"x_max":0,"o":"m 300 1014 l 232 528 l 401 528 l 813 1014 l 967 1014 l 538 513 l 847 0 l 699 0 l 403 504 l 229 504 l 158 0 l 24 0 l 165 1014 "},"L":{"ha":782,"x_min":0,"x_max":0,"o":"m 165 1014 l 300 1014 l 176 128 l 717 128 l 699 0 l 24 0 "},"M":{"ha":1104,"x_min":0,"x_max":0,"o":"m 306 1014 l 457 282 l 506 40 l 619 282 l 976 1014 l 1115 1014 l 974 0 l 839 0 l 931 656 l 972 942 l 835 657 l 514 0 l 485 0 l 347 657 l 289 950 l 250 656 l 158 0 l 24 0 l 165 1014 "},"N":{"ha":963,"x_min":0,"x_max":0,"o":"m 299 1014 l 628 249 l 706 56 l 736 285 l 838 1014 l 972 1014 l 831 0 l 699 0 l 379 746 l 290 961 l 257 711 l 157 0 l 24 0 l 165 1014 "},"O":{"ha":1088,"x_min":0,"x_max":0,"o":"m 540 -14 b 71 563 188 -14 25 239 b 590 1028 106 815 297 1028 b 1051 451 918 1028 1099 785 b 540 -14 1017 197 835 -14 m 546 113 b 921 468 767 113 893 275 b 586 903 953 706 839 903 b 203 547 365 903 229 738 b 546 113 169 310 278 113 "},"P":{"ha":883,"x_min":0,"x_max":0,"o":"m 208 349 l 158 0 l 24 0 l 167 1014 l 503 1014 b 885 664 788 1014 911 867 b 393 349 854 436 647 349 m 283 890 l 211 375 l 390 375 b 751 618 615 375 729 456 b 472 890 776 792 690 890 "},"Q":{"ha":1089,"x_min":0,"x_max":0,"o":"m 953 -14 l 861 96 b 533 -14 776 28 667 -14 b 69 563 188 -14 25 239 b 592 1028 106 815 297 1028 b 1050 450 917 1028 1094 779 b 883 115 1033 318 975 199 l 976 4 m 201 547 b 544 113 168 310 278 113 b 779 193 642 113 719 142 l 669 325 l 692 344 l 801 213 b 919 467 867 278 906 368 b 586 903 951 700 840 903 b 201 547 365 903 229 738 "},"R":{"ha":933,"x_min":0,"x_max":0,"o":"m 604 1014 b 938 717 854 1014 963 886 b 556 451 913 550 763 464 b 707 418 619 447 669 438 b 828 189 782 385 811 324 l 853 0 l 708 0 l 682 210 b 433 442 657 399 615 442 l 221 442 l 158 0 l 24 0 l 165 1014 m 283 892 l 224 467 l 494 467 b 806 667 678 467 786 536 b 560 892 824 797 751 892 "},"S":{"ha":878,"x_min":0,"x_max":0,"o":"m 282 404 b 68 272 144 376 78 328 b 350 113 51 178 135 113 b 725 317 589 113 710 207 b 444 507 738 414 697 468 b 85 771 168 549 64 615 b 571 1032 107 926 290 1032 b 897 806 819 1032 917 935 b 649 614 883 717 819 649 l 644 635 b 832 751 749 657 821 690 b 569 906 847 833 783 906 b 196 722 340 906 210 824 b 449 529 182 624 224 563 b 831 265 733 486 849 421 b 343 -15 810 99 626 -15 b 0 214 82 -15 -21 75 b 278 425 14 308 96 393 l 282 404 "},"T":{"ha":843,"x_min":0,"x_max":0,"o":"m 117 1014 l 901 1014 l 885 892 l 560 892 l 435 0 l 300 0 l 425 892 l 99 892 "},"U":{"ha":938,"x_min":0,"x_max":0,"o":"m 960 1014 l 875 413 b 428 -14 835 128 682 -14 b 71 421 181 -14 31 125 l 154 1014 l 289 1014 l 207 422 b 439 113 178 218 263 113 b 740 415 615 113 713 213 l 825 1014 "},"V":{"ha":954,"x_min":0,"x_max":0,"o":"m 482 0 l 346 0 l 100 1014 l 240 1014 l 375 447 l 438 176 l 581 447 l 882 1014 l 1028 1014 "},"W":{"ha":1146,"x_min":0,"x_max":0,"o":"m 247 1014 l 299 47 l 299 43 l 303 54 l 640 1014 l 671 1014 l 740 54 l 742 43 l 743 47 l 1072 1014 l 1214 1014 l 863 0 l 717 0 l 651 903 l 649 964 l 629 903 l 311 0 l 165 0 l 106 1014 "},"X":{"ha":904,"x_min":0,"x_max":0,"o":"m 397 531 l 124 1014 l 269 1014 l 488 622 l 489 621 l 489 622 l 808 1014 l 967 1014 l 556 518 l 844 0 l 696 0 l 465 426 l 115 0 l -46 0 "},"Y":{"ha":872,"x_min":0,"x_max":0,"o":"m 236 1014 l 453 500 l 810 1014 l 963 1014 l 501 360 l 451 0 l 315 0 l 367 369 l 90 1014 "},"Z":{"ha":811,"x_min":0,"x_max":0,"o":"m 796 883 l 804 892 l 107 892 l 124 1014 l 867 1014 l 850 896 l 51 138 l 39 126 l 740 126 l 724 0 l -24 0 l -7 122 "},"a":{"ha":864,"x_min":0,"x_max":0,"o":"m 88 589 b 449 793 101 699 228 793 b 767 510 696 793 797 693 l 722 243 b 750 108 704 133 715 108 b 863 338 792 108 824 188 l 883 338 b 663 -14 831 125 769 -14 b 582 169 583 -14 560 46 b 600 267 588 210 593 240 b 235 -17 528 89 418 -17 b 18 176 74 -17 3 72 b 158 338 31 254 78 303 b 400 400 226 365 288 378 b 354 399 385 399 368 399 b 88 589 113 399 75 493 m 643 536 b 442 678 653 615 608 678 b 203 533 297 678 211 608 b 374 417 197 481 210 415 b 522 435 422 417 476 422 b 643 536 575 449 635 475 m 158 238 b 322 96 149 158 203 96 b 619 372 472 96 568 186 l 638 482 b 514 411 615 443 563 424 b 251 342 394 379 322 371 b 158 238 197 318 165 289 "},"b":{"ha":918,"x_min":0,"x_max":0,"o":"m 871 356 b 486 -14 842 139 693 -14 b 186 278 278 -14 200 113 l 181 188 l 154 0 l 19 0 l 172 1082 l 306 1082 l 240 619 l 224 542 b 550 792 278 681 375 792 b 871 356 761 792 907 615 m 740 364 b 488 672 765 535 676 672 b 200 417 325 672 222 568 b 454 107 175 236 265 107 b 740 364 615 107 718 213 "},"c":{"ha":806,"x_min":0,"x_max":0,"o":"m 554 401 b 671 497 628 419 661 447 b 471 671 692 593 629 671 b 169 408 306 671 192 558 b 453 101 146 242 240 101 b 807 418 646 101 764 224 l 826 415 b 400 -14 781 172 643 -14 b 40 418 143 -14 4 163 b 492 793 68 625 238 793 b 772 556 699 793 794 685 b 558 385 757 460 674 403 "},"d":{"ha":943,"x_min":0,"x_max":0,"o":"m 40 422 b 422 793 68 632 217 793 b 707 496 624 793 699 672 l 714 568 l 788 1082 l 922 1082 l 804 246 b 829 108 789 138 793 108 b 942 338 872 108 903 188 l 963 338 b 747 -14 911 126 850 -14 b 664 189 675 -14 636 33 b 669 224 665 201 668 213 l 675 257 b 354 -14 624 97 535 -14 b 40 422 149 -14 4 163 m 415 108 b 694 369 572 108 672 218 b 450 671 718 539 636 671 b 171 415 290 671 192 564 b 415 108 147 246 233 108 "},"e":{"ha":813,"x_min":0,"x_max":0,"o":"m 828 401 b 406 -14 783 164 643 -14 b 40 418 132 -14 4 165 b 494 793 68 624 235 793 b 792 543 722 793 810 669 b 453 347 772 403 636 349 b 169 408 346 349 239 371 b 454 100 146 243 232 100 b 810 404 651 100 768 219 m 472 671 b 174 433 311 671 204 571 b 447 374 244 394 353 374 b 668 499 571 374 651 408 b 472 671 688 592 626 671 "},"f":{"ha":525,"x_min":0,"x_max":0,"o":"m 210 658 l 53 658 l 69 778 l 226 778 l 233 832 b 511 1082 261 1025 328 1082 l 593 1082 l 576 963 l 494 963 b 363 836 404 963 376 940 l 354 778 l 550 778 l 535 658 l 338 658 l 246 0 l 117 0 "},"g":{"ha":889,"x_min":0,"x_max":0,"o":"m 40 422 b 422 793 68 632 217 793 b 708 496 625 793 700 674 l 715 579 l 743 778 l 876 778 l 776 57 b 308 -343 740 -199 588 -343 b 11 -162 68 -343 -7 -261 b 322 -6 25 -85 121 -15 b 40 422 135 13 6 176 m 415 108 b 694 369 572 108 672 218 b 450 671 718 539 638 671 b 171 415 290 671 192 564 b 415 108 147 246 233 108 m 672 246 b 392 -6 624 104 544 7 b 140 -108 211 -26 149 -60 b 318 -225 131 -172 183 -225 b 644 74 507 -225 615 -136 l 661 190 "},"h":{"ha":843,"x_min":0,"x_max":0,"o":"m 863 338 b 647 -14 813 131 749 -14 b 567 193 563 -14 539 40 l 606 415 b 454 674 638 592 583 674 b 206 426 342 674 261 594 l 147 0 l 13 0 l 165 1082 l 300 1082 l 217 501 b 532 793 282 692 396 793 b 743 469 706 793 779 668 l 703 242 b 731 108 683 133 696 108 b 842 338 771 108 803 188 l 863 338 "},"i":{"ha":317,"x_min":0,"x_max":0,"o":"m 311 863 l 93 863 l 94 885 l 313 885 m 181 244 b 204 108 165 136 174 108 b 315 338 244 108 276 188 l 336 338 b 119 -14 286 133 224 -14 b 39 192 43 -14 17 40 l 122 778 l 257 778 "},"j":{"ha":276,"x_min":0,"x_max":0,"o":"m 317 863 l 99 863 l 101 885 l 319 885 m 126 778 l 260 778 l 149 -14 b -143 -329 114 -237 36 -329 b -322 -185 -279 -329 -340 -268 b -47 -54 -304 -108 -207 -57 l -49 -74 b -214 -140 -160 -78 -206 -103 b -135 -214 -224 -186 -190 -214 b 15 -4 -51 -214 -8 -171 "},"k":{"ha":781,"x_min":0,"x_max":0,"o":"m 667 106 b 779 338 696 106 729 146 l 800 338 b 593 -14 731 58 664 -14 b 469 181 524 -14 499 28 b 272 350 443 326 394 350 b 196 346 246 350 214 347 l 147 0 l 13 0 l 165 1082 l 300 1082 l 221 515 b 557 793 285 696 413 793 b 760 571 699 793 779 690 b 415 360 740 446 608 376 b 601 215 519 351 569 318 b 667 106 628 129 638 106 m 483 683 b 203 394 360 683 229 582 l 199 371 l 326 371 b 621 525 503 371 604 431 b 483 683 636 615 583 683 "},"l":{"ha":322,"x_min":0,"x_max":0,"o":"m 182 244 b 207 107 167 136 176 107 b 321 338 247 107 282 188 l 342 338 b 122 -14 292 129 229 -14 b 40 193 44 -14 18 42 l 165 1082 l 300 1082 "},"m":{"ha":1335,"x_min":0,"x_max":0,"o":"m 1354 338 b 1138 -14 1304 131 1240 -14 b 1058 193 1054 -14 1031 40 l 1097 415 b 946 674 1129 592 1075 674 b 728 447 843 674 772 593 l 665 0 l 536 0 l 594 425 b 449 674 618 589 571 674 b 206 426 349 674 263 600 l 147 0 l 13 0 l 121 778 l 256 778 l 215 493 b 529 793 278 683 389 793 b 735 519 668 793 751 692 b 1026 793 797 696 890 793 b 1235 469 1199 793 1271 668 l 1194 242 b 1221 108 1175 133 1189 108 b 1333 338 1261 108 1294 188 l 1354 338 "},"n":{"ha":843,"x_min":0,"x_max":0,"o":"m 217 501 b 532 793 282 692 396 793 b 743 469 704 793 779 668 l 703 242 b 729 107 683 133 697 107 b 842 338 771 107 803 188 l 863 338 b 647 -14 814 136 750 -14 b 567 193 565 -14 539 40 l 606 415 b 457 674 638 592 583 674 b 206 426 343 674 261 594 l 147 0 l 13 0 l 121 778 l 256 778 "},"o":{"ha":879,"x_min":0,"x_max":0,"o":"m 413 -14 b 46 422 151 -14 11 172 b 467 793 75 628 232 793 b 831 354 729 793 867 600 b 413 -14 803 150 657 -14 m 421 107 b 700 363 582 107 678 215 b 458 672 724 533 646 672 b 176 413 300 672 199 564 b 421 107 151 239 246 107 "},"p":{"ha":918,"x_min":0,"x_max":0,"o":"m 129 778 l 263 778 l 239 614 l 224 540 b 550 792 278 681 375 792 b 871 356 761 792 907 615 b 486 -15 842 139 693 -14 b 188 282 276 -15 200 115 l 181 189 l 113 -300 l -22 -300 m 456 107 b 740 364 617 107 718 213 b 488 672 765 535 676 672 b 201 417 326 672 222 568 b 456 107 176 236 265 107 "},"q":{"ha":918,"x_min":0,"x_max":0,"o":"m 47 433 b 442 793 76 643 228 793 b 732 507 619 793 717 675 l 738 572 l 765 778 l 899 778 l 747 -300 l 613 -300 l 681 179 l 693 240 b 367 -12 635 82 533 -12 b 47 433 144 -12 11 181 m 718 369 b 467 672 743 544 649 672 b 178 424 299 672 199 572 b 431 107 153 249 242 107 b 718 369 589 107 696 213 "},"r":{"ha":658,"x_min":0,"x_max":0,"o":"m 374 408 b 547 533 467 417 536 453 b 419 676 558 619 515 676 b 210 456 326 676 250 611 l 147 0 l 13 0 l 121 778 l 254 778 l 219 526 b 490 790 265 696 347 790 b 667 590 615 790 683 701 b 375 389 651 476 553 399 "},"s":{"ha":764,"x_min":0,"x_max":0,"o":"m 560 469 b 701 561 647 489 693 519 b 483 672 714 624 650 672 b 174 539 294 672 186 615 b 386 404 164 472 196 426 b 704 203 638 375 722 325 b 289 -15 688 82 546 -15 b 3 188 60 -15 -18 64 b 213 342 15 257 81 315 l 217 321 b 64 226 113 301 71 267 b 293 111 53 163 114 111 b 603 258 475 111 592 178 b 385 385 613 328 579 360 b 67 588 125 415 49 474 b 494 797 83 706 225 797 b 760 603 713 797 781 717 b 565 450 746 525 688 476 "},"t":{"ha":506,"x_min":0,"x_max":0,"o":"m 213 778 l 247 1014 l 371 1014 l 336 778 l 526 778 l 510 657 l 319 657 l 265 283 b 301 107 246 150 261 107 b 467 429 354 107 413 221 l 489 428 b 219 -14 418 153 335 -14 b 133 240 135 -14 106 53 l 194 657 l 47 657 l 64 778 "},"u":{"ha":829,"x_min":0,"x_max":0,"o":"m 690 253 b 715 108 674 140 678 108 b 828 338 757 108 789 188 l 849 338 b 629 -14 794 119 733 -14 b 547 193 547 -14 524 33 l 556 254 b 260 -15 496 83 388 -15 b 53 308 86 -15 25 103 l 119 778 l 249 778 l 190 368 b 338 99 167 190 204 99 b 571 361 450 99 536 201 l 629 778 l 764 778 "},"v":{"ha":790,"x_min":0,"x_max":0,"o":"m 257 0 l 61 778 l 196 778 l 343 171 l 347 150 l 357 169 l 703 778 l 842 778 l 394 0 "},"w":{"ha":1032,"x_min":0,"x_max":0,"o":"m 268 0 l 138 0 l 78 778 l 213 778 l 246 268 l 260 40 l 347 268 l 547 764 l 575 764 l 633 269 l 658 43 l 738 268 l 921 778 l 1060 778 l 774 0 l 638 0 l 579 501 l 556 721 l 469 501 "},"x":{"ha":793,"x_min":0,"x_max":0,"o":"m 321 407 l 85 778 l 236 778 l 413 496 l 667 778 l 826 778 l 481 400 l 739 0 l 585 0 l 389 308 l 111 0 l -51 0 "},"y":{"ha":781,"x_min":0,"x_max":0,"o":"m 664 57 b 235 -343 628 -199 499 -343 b -40 -161 17 -343 -61 -267 b 233 -14 -26 -89 63 -32 b 53 308 79 -3 26 115 l 119 778 l 249 778 l 190 364 b 336 99 165 182 203 99 b 574 361 453 99 538 201 l 632 778 l 765 778 l 664 57 m 83 -118 b 244 -225 74 -181 124 -225 b 532 74 419 -225 503 -136 l 560 267 b 281 -14 504 96 401 -3 b 83 -118 151 -36 92 -68 "},"z":{"ha":728,"x_min":0,"x_max":0,"o":"m 678 650 l 86 650 l 103 778 l 735 778 l 718 650 l 43 129 l 651 129 l 633 0 l -17 0 l 1 129 "},".":{"ha":289,"x_min":0,"x_max":0,"o":"m 100 -10 b 3 101 39 -10 -7 32 b 110 193 10 154 50 193 b 204 81 174 193 214 143 b 100 -10 197 26 157 -10 "}}}
